<svg width="16" height="16" viewBox="0 0 16 16" fill="none" xmlns="http://www.w3.org/2000/svg">
<path d="M2.7 14C4.08889 14 5.46111 13.6972 6.81667 13.0917C8.17222 12.4861 9.40556 11.6278 10.5167 10.5167C11.6278 9.40556 12.4861 8.17222 13.0917 6.81667C13.6972 5.46111 14 4.08889 14 2.7C14 2.5 13.9333 2.33333 13.8 2.2C13.6667 2.06667 13.5 2 13.3 2H10.6C10.4444 2 10.3056 2.05278 10.1833 2.15833C10.0611 2.26389 9.98889 2.38889 9.96667 2.53333L9.53333 4.86667C9.51111 5.04444 9.51667 5.19444 9.55 5.31667C9.58333 5.43889 9.64444 5.54444 9.73333 5.63333L11.35 7.26667C11.1278 7.67778 10.8639 8.075 10.5583 8.45833C10.2528 8.84167 9.91667 9.21111 9.55 9.56667C9.20556 9.91111 8.84444 10.2306 8.46667 10.525C8.08889 10.8194 7.68889 11.0889 7.26667 11.3333L5.7 9.76667C5.6 9.66667 5.46944 9.59167 5.30833 9.54167C5.14722 9.49167 4.98889 9.47778 4.83333 9.5L2.53333 9.96667C2.37778 10.0111 2.25 10.0917 2.15 10.2083C2.05 10.325 2 10.4556 2 10.6V13.3C2 13.5 2.06667 13.6667 2.2 13.8C2.33333 13.9333 2.5 14 2.7 14ZM11.9833 6L10.8833 4.9L11.1667 3.33333H12.65C12.5944 3.78889 12.5167 4.23889 12.4167 4.68333C12.3167 5.12778 12.1722 5.56667 11.9833 6ZM6.01667 11.9667C5.58333 12.1556 5.14167 12.3056 4.69167 12.4167C4.24167 12.5278 3.78889 12.6 3.33333 12.6333V11.1667L4.9 10.85L6.01667 11.9667Z" fill="#191C20"/>
</svg>
