<svg xmlns="http://www.w3.org/2000/svg" fill="none" viewBox="0 0 16 16" id="Arrow-Circle-Down-Duotone--Streamline-Phosphor" height="16" width="16">
  <desc>
    Arrow Circle Down Duotone Streamline Icon: https://streamlinehq.com
  </desc>
  <g id="arrow-circle-down-duotone">
    <path id="Vector" fill="#c4c4c3" d="M15.2369125 7.9999875c0 1.431325 -0.42441875 2.8305375 -1.21965 4.02063125 -0.79515 1.19009375 -1.92546875 2.117625 -3.2477875 2.66536875 -1.32239375 0.54774375 -2.77746875 0.691125 -4.18135 0.411825 -1.40379375 -0.279225 -2.69329375 -0.9684625 -3.7053875 -1.980575 -1.0121 -1.0121125 -1.70135625 -2.3015625 -1.9805875 -3.705375 -0.2792375 -1.4038875 -0.135925 -2.85895625 0.41181875 -4.18131875 0.54774375 -1.322375 1.47531875 -2.45263125 2.665425 -3.24783125C5.16949375 1.1875125 6.568675 0.763075 8 0.763075c1.9193625 0 3.7601 0.7624625 5.11725 2.1196375 1.357225 1.3571875 2.1196625 3.1979125 2.1196625 5.117275Z" stroke-width="0.0625"></path>
    <path id="Vector_2" fill="#000000" d="M8 0.16c-1.55058125 0 -3.066375 0.45980625 -4.3556625 1.32128125C2.35505625 2.34274375 1.3501875 3.56718125 0.7568 4.99975 0.1634125 6.43229375 0.00815 8.00865625 0.3106625 9.5294625c0.3025 1.52080625 1.04919375 2.91775625 2.14563125 4.014225 1.09644375 1.09646875 2.49339375 1.84315 4.01423125 2.14566875 1.52080625 0.30251875 3.09716875 0.147225 4.5297 -0.4462 1.43260625 -0.59335 2.65700625 -1.598225 3.5185 -2.88753125 0.86149375 -1.289225 1.3212625 -2.80505625 1.3212625 -4.3556375 -0.0021875 -2.07865 -0.82893125 -4.07148125 -2.2987 -5.54128125C12.07151875 0.9889 10.07865 0.16219375 8 0.16Zm0 14.473825c-1.31206875 0 -2.59463125 -0.3890625 -3.68555625 -1.11803125 -1.09093125 -0.72889375 -1.94120625 -1.764975 -2.44330625 -2.97715625 -0.5021 -1.2121875 -0.633475 -2.5460375 -0.37750625 -3.83285 0.25596875 -1.2868375 0.88778125 -2.468875 1.81554375 -3.39663125 0.92775625 -0.92775625 2.10979375 -1.55956875 3.396625 -1.8155375 1.2868125 -0.25596875 2.6206625 -0.12459375 3.83285 0.37750625s2.2482625 1.352375 2.97715625 2.4433c0.72896875 1.090925 1.11803125 2.37349375 1.11803125 3.6855625 -0.0019625 1.75879375 -0.70153125 3.44499375 -1.945225 4.6886125 -1.24361875 1.24369375 -2.92981875 1.9432625 -4.6886125 1.945225Zm2.83898125 -6.4574375c0.0560875 0.0560125 0.1005625 0.1225 0.13094375 0.1957 0.0303 0.07326875 0.04590625 0.15174375 0.04590625 0.230975s-0.01560625 0.15770625 -0.04590625 0.23098125c-0.03038125 0.07319375 -0.07485625 0.1396875 -0.13094375 0.19569375l-2.41230625 2.41230625c-0.0560125 0.0560875 -0.1225 0.1005625 -0.1957 0.13086875 -0.07326875 0.03038125 -0.15174375 0.04598125 -0.230975 0.04598125s-0.15770625 -0.0156 -0.2309 -0.04598125c-0.073275 -0.03030625 -0.13976875 -0.07478125 -0.195775 -0.13086875l-2.41230625 -2.41230625c-0.11315625 -0.11315 -0.17673125 -0.26663125 -0.17673125 -0.426675s0.063575 -0.313525 0.17673125 -0.426675c0.11316875 -0.11315 0.26664375 -0.1767 0.426675 -0.1767 0.16004375 0 0.313525 0.06355 0.42668125 0.1767l1.38255 1.38330625V4.98460625c0 -0.15994375 0.06355 -0.31334375 0.176625 -0.42644375 0.113075 -0.1130875 0.26648125 -0.17663125 0.42645 -0.17663125s0.313375 0.06354375 0.42645 0.17663125c0.113075 0.1131 0.176625 0.2665 0.176625 0.42644375v4.5750875l1.38255 -1.38330625c0.0560125 -0.0560875 0.1225 -0.1005625 0.195775 -0.13086875 0.0732 -0.03038125 0.151675 -0.04598125 0.23090625 -0.04598125 0.079225 0 0.1577 0.0156 0.230975 0.04598125 0.0732 0.03030625 0.1396875 0.07478125 0.1957 0.13086875Z" stroke-width="0.0625"></path>
  </g>
</svg>