<svg width="24" height="24" viewBox="0 0 24 24" fill="none" xmlns="http://www.w3.org/2000/svg">
<path d="M4.05 21C6.13333 21 8.19167 20.5458 10.225 19.6375C12.2583 18.7292 14.1083 17.4417 15.775 15.775C17.4417 14.1083 18.7292 12.2583 19.6375 10.225C20.5458 8.19167 21 6.13333 21 4.05C21 3.75 20.9 3.5 20.7 3.3C20.5 3.1 20.25 3 19.95 3H15.9C15.6667 3 15.4583 3.07917 15.275 3.2375C15.0917 3.39583 14.9833 3.58333 14.95 3.8L14.3 7.3C14.2667 7.56667 14.275 7.79167 14.325 7.975C14.375 8.15833 14.4667 8.31667 14.6 8.45L17.025 10.9C16.6917 11.5167 16.2958 12.1125 15.8375 12.6875C15.3792 13.2625 14.875 13.8167 14.325 14.35C13.8083 14.8667 13.2667 15.3458 12.7 15.7875C12.1333 16.2292 11.5333 16.6333 10.9 17L8.55 14.65C8.4 14.5 8.20417 14.3875 7.9625 14.3125C7.72083 14.2375 7.48333 14.2167 7.25 14.25L3.8 14.95C3.56667 15.0167 3.375 15.1375 3.225 15.3125C3.075 15.4875 3 15.6833 3 15.9V19.95C3 20.25 3.1 20.5 3.3 20.7C3.5 20.9 3.75 21 4.05 21ZM17.975 9L16.325 7.35L16.75 5H18.975C18.8917 5.68333 18.775 6.35833 18.625 7.025C18.475 7.69167 18.2583 8.35 17.975 9ZM9.025 17.95C8.375 18.2333 7.7125 18.4583 7.0375 18.625C6.3625 18.7917 5.68333 18.9 5 18.95V16.75L7.35 16.275L9.025 17.95Z" fill="#3F5F90"/>
</svg>
