<svg width="24" height="24" viewBox="0 0 24 24" fill="none" xmlns="http://www.w3.org/2000/svg">
<path fill-rule="evenodd" clip-rule="evenodd" d="M3.0875 21.4125C3.47917 21.8042 3.95 22 4.5 22H10.5C10.7833 22 11.0208 21.9042 11.2125 21.7125C11.4042 21.5208 11.5 21.2833 11.5 21C11.5 20.7167 11.4042 20.4792 11.2125 20.2875C11.0208 20.0958 10.7833 20 10.5 20H4.5V10H18.5V11C18.5 11.2833 18.5958 11.5208 18.7875 11.7125C18.9792 11.9042 19.2167 12 19.5 12C19.7833 12 20.0208 11.9042 20.2125 11.7125C20.4042 11.5208 20.5 11.2833 20.5 11V6C20.5 5.45 20.3042 4.97917 19.9125 4.5875C19.5208 4.19583 19.05 4 18.5 4H17.5V3C17.5 2.71667 17.4042 2.47917 17.2125 2.2875C17.0208 2.09583 16.7833 2 16.5 2C16.2167 2 15.9792 2.09583 15.7875 2.2875C15.5958 2.47917 15.5 2.71667 15.5 3V4H7.5V3C7.5 2.71667 7.40417 2.47917 7.2125 2.2875C7.02083 2.09583 6.78333 2 6.5 2C6.21667 2 5.97917 2.09583 5.7875 2.2875C5.59583 2.47917 5.5 2.71667 5.5 3V4H4.5C3.95 4 3.47917 4.19583 3.0875 4.5875C2.69583 4.97917 2.5 5.45 2.5 6V20C2.5 20.55 2.69583 21.0208 3.0875 21.4125ZM18.5 8H4.5V6H18.5V8Z" fill="#3F5F90"/>
<path fill-rule="evenodd" clip-rule="evenodd" d="M17.7853 22.5L17.9377 23.2C17.9846 23.4333 18.0978 23.625 18.2736 23.775C18.3752 23.8628 18.4885 23.9249 18.6096 23.9613C18.6955 23.9871 18.7893 24 18.8869 24H19.2853C19.5197 24 19.7228 23.9292 19.8986 23.7875C20.0744 23.6459 20.1877 23.4584 20.2346 23.225L20.3869 22.5L20.6994 22.361L20.9494 22.2375C21.1252 22.1459 21.301 22.0333 21.4846 21.9L22.2111 22.125C22.426 22.1917 22.6369 22.1833 22.8361 22.1C23.0353 22.0167 23.1955 21.8833 23.3127 21.7L23.5353 21.325C23.5939 21.2228 23.6369 21.1174 23.6564 21.0087C23.676 20.9045 23.676 20.7975 23.6603 20.6875C23.6291 20.4625 23.5197 20.275 23.3361 20.125L22.7853 19.65C22.8205 19.45 22.8361 19.2417 22.8361 19.025C22.8361 18.8083 22.8205 18.6 22.7853 18.4L23.3361 17.925C23.4377 17.8423 23.5158 17.7468 23.5705 17.6387C23.6135 17.5508 23.6447 17.4546 23.6603 17.35C23.6955 17.1167 23.6525 16.9 23.5353 16.7L23.3361 16.35C23.2189 16.15 23.051 16.0083 22.8361 15.925C22.6213 15.8417 22.3947 15.8417 22.1603 15.925L21.4846 16.15C21.301 16 21.1252 15.875 20.9494 15.775C20.7736 15.675 20.5861 15.5834 20.3869 15.5L20.2346 14.8C20.2189 14.7197 20.1955 14.6444 20.1643 14.574C20.1018 14.4397 20.0158 14.3234 19.8986 14.225C19.7228 14.075 19.5197 14 19.2853 14H18.8869C18.6525 14 18.4494 14.0708 18.2736 14.2125C18.0978 14.3541 17.9846 14.5416 17.9377 14.775L17.7853 15.5C17.5861 15.5834 17.3986 15.6708 17.2228 15.7625C17.0471 15.8541 16.8713 15.9667 16.6877 16.1L15.9611 15.875C15.7463 15.8083 15.5353 15.8167 15.3361 15.9C15.1369 15.9833 14.9768 16.1167 14.8596 16.3L14.6369 16.675C14.5197 16.875 14.4768 17.0875 14.5119 17.3125C14.5353 17.468 14.5939 17.6056 14.6877 17.7252C14.7268 17.7787 14.7775 17.8286 14.8361 17.875L15.3869 18.35C15.3518 18.5834 15.3361 18.8 15.3361 19C15.3361 19.2 15.3518 19.4166 15.3869 19.65L14.8361 20.125C14.6525 20.275 14.5432 20.4667 14.5119 20.7C14.4768 20.9333 14.5197 21.15 14.6369 21.35L14.8361 21.7C14.9533 21.8833 15.1135 22.0167 15.3244 22.1C15.5314 22.1833 15.7463 22.1917 15.9611 22.125L16.6877 21.9C16.8713 22.0333 17.0471 22.1459 17.2228 22.2375C17.3986 22.3292 17.5861 22.4166 17.7853 22.5ZM20.5002 20.4125C20.1057 20.8042 19.6369 21 19.0861 21C18.5353 21 18.0666 20.8042 17.6721 20.4125C17.2814 20.0209 17.0861 19.55 17.0861 19C17.0861 18.45 17.2814 17.9791 17.6721 17.5875C17.8869 17.3749 18.1213 17.22 18.383 17.1228C18.6018 17.0409 18.8361 17 19.0861 17C19.6369 17 20.1057 17.1958 20.5002 17.5875C20.8908 17.9791 21.0861 18.45 21.0861 19C21.0861 19.55 20.8908 20.0209 20.5002 20.4125Z" fill="#3F5F90"/>
</svg>
