<svg width="24" height="24" viewBox="0 0 24 24" fill="none" xmlns="http://www.w3.org/2000/svg">
<path d="M3.33008 18C3.61341 18 3.8513 18.0954 4.04297 18.2871C4.23464 18.4788 4.33008 18.7167 4.33008 19V21H6.33008C6.61341 21 6.8513 21.0954 7.04297 21.2871C7.23464 21.4788 7.33008 21.7167 7.33008 22C7.33008 22.2833 7.23464 22.5212 7.04297 22.7129C6.8513 22.9046 6.61341 23 6.33008 23H4.33008C3.78008 23 3.30964 22.8038 2.91797 22.4121C2.5263 22.0204 2.33008 21.55 2.33008 21V19C2.33008 18.7167 2.42552 18.4788 2.61719 18.2871C2.80885 18.0954 3.04674 18 3.33008 18ZM21.3301 18C21.6134 18 21.8513 18.0954 22.043 18.2871C22.2346 18.4788 22.3301 18.7167 22.3301 19V21C22.3301 21.55 22.1339 22.0204 21.7422 22.4121C21.3505 22.8038 20.8801 23 20.3301 23H18.3301C18.0467 23 17.8089 22.9046 17.6172 22.7129C17.4255 22.5212 17.3301 22.2833 17.3301 22C17.3301 21.7167 17.4255 21.4788 17.6172 21.2871C17.8089 21.0954 18.0467 21 18.3301 21H20.3301V19C20.3301 18.7167 20.4255 18.4788 20.6172 18.2871C20.8089 18.0954 21.0467 18 21.3301 18ZM6.33008 1C6.61341 1 6.8513 1.09544 7.04297 1.28711C7.23464 1.47878 7.33008 1.71667 7.33008 2C7.33008 2.28333 7.23464 2.52122 7.04297 2.71289C6.8513 2.90456 6.61341 3 6.33008 3H4.33008V5C4.33008 5.28333 4.23464 5.52122 4.04297 5.71289C3.8513 5.90456 3.61341 6 3.33008 6C3.04674 6 2.80885 5.90456 2.61719 5.71289C2.42552 5.52122 2.33008 5.28333 2.33008 5V3C2.33008 2.45 2.5263 1.97956 2.91797 1.58789C3.30964 1.19622 3.78008 1 4.33008 1H6.33008ZM20.3301 1C20.8801 1 21.3505 1.19622 21.7422 1.58789C22.1339 1.97956 22.3301 2.45 22.3301 3V5C22.3301 5.28333 22.2346 5.52122 22.043 5.71289C21.8513 5.90456 21.6134 6 21.3301 6C21.0467 6 20.8089 5.90456 20.6172 5.71289C20.4255 5.52122 20.3301 5.28333 20.3301 5V3H18.3301C18.0467 3 17.8089 2.90456 17.6172 2.71289C17.4255 2.52122 17.3301 2.28333 17.3301 2C17.3301 1.71667 17.4255 1.47878 17.6172 1.28711C17.8089 1.09544 18.0467 1 18.3301 1H20.3301Z" fill="#3F5F90"/>
<path d="M17.3301 4C17.8801 4 18.3505 4.19622 18.7422 4.58789C19.1339 4.97956 19.3301 5.45 19.3301 6V18C19.3301 18.55 19.1339 19.0204 18.7422 19.4121C18.3505 19.8038 17.8801 20 17.3301 20H7.33008C6.78008 20 6.30964 19.8038 5.91797 19.4121C5.5263 19.0204 5.33008 18.55 5.33008 18V6C5.33008 5.45 5.5263 4.97956 5.91797 4.58789C6.30964 4.19622 6.78008 4 7.33008 4H17.3301ZM7.33008 18H17.3301V6H7.33008V18ZM14.3301 14C14.6134 14 14.8513 14.0954 15.043 14.2871C15.2346 14.4788 15.3301 14.7167 15.3301 15C15.3301 15.2833 15.2346 15.5212 15.043 15.7129C14.8513 15.9046 14.6134 16 14.3301 16H10.3301C10.0467 16 9.80885 15.9046 9.61719 15.7129C9.42552 15.5212 9.33008 15.2833 9.33008 15C9.33008 14.7167 9.42552 14.4788 9.61719 14.2871C9.80885 14.0954 10.0467 14 10.3301 14H14.3301ZM14.3301 11C14.6134 11 14.8513 11.0954 15.043 11.2871C15.2346 11.4788 15.3301 11.7167 15.3301 12C15.3301 12.2833 15.2346 12.5212 15.043 12.7129C14.8513 12.9046 14.6134 13 14.3301 13H10.3301C10.0467 13 9.80885 12.9046 9.61719 12.7129C9.42552 12.5212 9.33008 12.2833 9.33008 12C9.33008 11.7167 9.42552 11.4788 9.61719 11.2871C9.80885 11.0954 10.0467 11 10.3301 11H14.3301ZM14.3301 8C14.6134 8 14.8513 8.09544 15.043 8.28711C15.2346 8.47878 15.3301 8.71667 15.3301 9C15.3301 9.28333 15.2346 9.52122 15.043 9.71289C14.8513 9.90456 14.6134 10 14.3301 10H10.3301C10.0467 10 9.80885 9.90456 9.61719 9.71289C9.42552 9.52122 9.33008 9.28333 9.33008 9C9.33008 8.71667 9.42552 8.47878 9.61719 8.28711C9.80885 8.09544 10.0467 8 10.3301 8H14.3301Z" fill="#3F5F90"/>
</svg>
