<svg width="24" height="24" viewBox="0 0 24 24" fill="none" xmlns="http://www.w3.org/2000/svg">
<path d="M8.99977 8.99998V20H15.9998V17C15.9998 16.7166 16.0956 16.4791 16.2873 16.2875C16.4789 16.0958 16.7164 16 16.9998 16H19.9998V8.99998H8.99977ZM6.99977 20V8.97498C6.99977 8.42498 7.19977 7.95831 7.59977 7.57498C7.99977 7.19165 8.47477 6.99998 9.02477 6.99998H19.9998C20.5498 6.99998 21.0206 7.19581 21.4123 7.58748C21.8039 7.97915 21.9998 8.44998 21.9998 8.99998V16.175C21.9998 16.4416 21.9498 16.6958 21.8498 16.9375C21.7498 17.1791 21.6081 17.3916 21.4248 17.575L17.5748 21.425C17.3914 21.6083 17.1789 21.75 16.9373 21.85C16.6956 21.95 16.4414 22 16.1748 22H8.99977C8.44977 22 7.97894 21.8041 7.58727 21.4125C7.1956 21.0208 6.99977 20.55 6.99977 20ZM2.02477 6.24998C1.92477 5.69998 2.0331 5.20415 2.34977 4.76248C2.66644 4.32081 3.09977 4.04998 3.64977 3.94998L14.4998 2.02498C15.0331 1.92498 15.5164 2.03748 15.9498 2.36248C16.3831 2.68748 16.6664 3.11665 16.7998 3.64998L16.9748 4.42498C17.0581 4.75831 17.0081 5.02498 16.8248 5.22498C16.6414 5.42498 16.4248 5.54165 16.1748 5.57498C15.9248 5.60831 15.6873 5.56248 15.4623 5.43748C15.2373 5.31248 15.0831 5.08331 14.9998 4.74998L14.8248 3.99998L3.99977 5.92498L5.49977 14.525C5.54977 14.8083 5.49977 15.0625 5.34977 15.2875C5.19977 15.5125 4.9831 15.65 4.69977 15.7C4.41644 15.75 4.16644 15.6958 3.94977 15.5375C3.7331 15.3791 3.59977 15.1583 3.54977 14.875L2.02477 6.24998Z" fill="#3F5F90"/>
</svg>
