<svg width="24" height="24" viewBox="0 0 24 24" fill="none" xmlns="http://www.w3.org/2000/svg">
<path d="M6.4251 13H20.6001C20.8834 13 21.1209 12.9042 21.3126 12.7125C21.5043 12.5208 21.6001 12.2833 21.6001 12C21.6001 11.7167 21.5043 11.4792 21.3126 11.2875C21.1209 11.0958 20.8834 11 20.6001 11H6.4251L7.8001 9.59999C8.0001 9.39999 8.09593 9.16665 8.0876 8.89999C8.07926 8.63332 7.9751 8.39999 7.7751 8.19999C7.5751 8.01665 7.3376 7.92082 7.0626 7.91249C6.7876 7.90415 6.55843 7.99999 6.3751 8.19999L3.3001 11.3C3.1001 11.5 3.0001 11.7333 3.0001 12C3.0001 12.2667 3.1001 12.5 3.3001 12.7L6.4001 15.8C6.58343 15.9833 6.8126 16.075 7.0876 16.075C7.3626 16.075 7.6001 15.9833 7.8001 15.8C8.0001 15.6 8.1001 15.3625 8.1001 15.0875C8.1001 14.8125 8.0001 14.575 7.8001 14.375L6.4251 13Z" fill="#5F6368"/>
</svg>
