<svg width="24" height="24" viewBox="0 0 24 24" fill="none" xmlns="http://www.w3.org/2000/svg">
<g clip-path="url(#clip0_53951_6912)">
<path d="M12.5 11.95C12.9833 11.4167 13.3542 10.8083 13.6125 10.125C13.8708 9.44167 14 8.73333 14 8C14 7.26667 13.8708 6.55833 13.6125 5.875C13.3542 5.19167 12.9833 4.58333 12.5 4.05C13.5 4.18333 14.3333 4.625 15 5.375C15.6667 6.125 16 7 16 8C16 9 15.6667 9.875 15 10.625C14.3333 11.375 13.5 11.8167 12.5 11.95ZM17.45 20C17.6333 19.7 17.7708 19.3792 17.8625 19.0375C17.9542 18.6958 18 18.35 18 18V17C18 16.4 17.8667 15.8292 17.6 15.2875C17.3333 14.7458 16.9833 14.2667 16.55 13.85C17.4 14.15 18.1875 14.5375 18.9125 15.0125C19.6375 15.4875 20 16.15 20 17V18C20 18.55 19.8042 19.0208 19.4125 19.4125C19.0208 19.8042 18.55 20 18 20H17.45ZM20 11H19C18.7167 11 18.4792 10.9042 18.2875 10.7125C18.0958 10.5208 18 10.2833 18 10C18 9.71667 18.0958 9.47917 18.2875 9.2875C18.4792 9.09583 18.7167 9 19 9H20V8C20 7.71667 20.0958 7.47917 20.2875 7.2875C20.4792 7.09583 20.7167 7 21 7C21.2833 7 21.5208 7.09583 21.7125 7.2875C21.9042 7.47917 22 7.71667 22 8V9H23C23.2833 9 23.5208 9.09583 23.7125 9.2875C23.9042 9.47917 24 9.71667 24 10C24 10.2833 23.9042 10.5208 23.7125 10.7125C23.5208 10.9042 23.2833 11 23 11H22V12C22 12.2833 21.9042 12.5208 21.7125 12.7125C21.5208 12.9042 21.2833 13 21 13C20.7167 13 20.4792 12.9042 20.2875 12.7125C20.0958 12.5208 20 12.2833 20 12V11ZM8 12C6.9 12 5.95833 11.6083 5.175 10.825C4.39167 10.0417 4 9.1 4 8C4 6.9 4.39167 5.95833 5.175 5.175C5.95833 4.39167 6.9 4 8 4C9.1 4 10.0417 4.39167 10.825 5.175C11.6083 5.95833 12 6.9 12 8C12 9.1 11.6083 10.0417 10.825 10.825C10.0417 11.6083 9.1 12 8 12ZM0 18V17.2C0 16.6333 0.145833 16.1125 0.4375 15.6375C0.729167 15.1625 1.11667 14.8 1.6 14.55C2.63333 14.0333 3.68333 13.6458 4.75 13.3875C5.81667 13.1292 6.9 13 8 13C9.1 13 10.1833 13.1292 11.25 13.3875C12.3167 13.6458 13.3667 14.0333 14.4 14.55C14.8833 14.8 15.2708 15.1625 15.5625 15.6375C15.8542 16.1125 16 16.6333 16 17.2V18C16 18.55 15.8042 19.0208 15.4125 19.4125C15.0208 19.8042 14.55 20 14 20H2C1.45 20 0.979167 19.8042 0.5875 19.4125C0.195833 19.0208 0 18.55 0 18ZM8 10C8.55 10 9.02083 9.80417 9.4125 9.4125C9.80417 9.02083 10 8.55 10 8C10 7.45 9.80417 6.97917 9.4125 6.5875C9.02083 6.19583 8.55 6 8 6C7.45 6 6.97917 6.19583 6.5875 6.5875C6.19583 6.97917 6 7.45 6 8C6 8.55 6.19583 9.02083 6.5875 9.4125C6.97917 9.80417 7.45 10 8 10ZM2 18H14V17.2C14 17.0167 13.9542 16.85 13.8625 16.7C13.7708 16.55 13.65 16.4333 13.5 16.35C12.6 15.9 11.6917 15.5625 10.775 15.3375C9.85833 15.1125 8.93333 15 8 15C7.06667 15 6.14167 15.1125 5.225 15.3375C4.30833 15.5625 3.4 15.9 2.5 16.35C2.35 16.4333 2.22917 16.55 2.1375 16.7C2.04583 16.85 2 17.0167 2 17.2V18Z" fill="#3F5F90"/>
<path d="M13.6027 10.125C13.3444 10.8083 12.9736 11.4167 12.4902 11.95C13.4902 11.8167 14.3236 11.375 14.9902 10.625C15.6569 9.875 15.9902 9 15.9902 8C15.9902 7 15.6569 6.125 14.9902 5.375C14.3236 4.625 13.4902 4.18333 12.4902 4.05C12.9736 4.58333 13.3444 5.19167 13.6027 5.875C13.8611 6.55833 13.9902 7.26667 13.9902 8C13.9902 8.73333 13.8611 9.44167 13.6027 10.125Z" fill="#3F5F90"/>
<path d="M17.8527 19.0375C17.7611 19.3792 17.6236 19.7 17.4402 20H17.9902C18.5402 20 19.0111 19.8042 19.4027 19.4125C19.7944 19.0208 19.9902 18.55 19.9902 18V17C19.9902 16.15 19.6277 15.4875 18.9027 15.0125C18.1777 14.5375 17.3902 14.15 16.5402 13.85C16.9736 14.2667 17.3236 14.7458 17.5902 15.2875C17.8569 15.8292 17.9902 16.4 17.9902 17V18C17.9902 18.35 17.9444 18.6958 17.8527 19.0375Z" fill="#3F5F90"/>
<path fill-rule="evenodd" clip-rule="evenodd" d="M5.16523 10.825C5.94857 11.6083 6.89023 12 7.99023 12C9.09023 12 10.0319 11.6083 10.8152 10.825C11.5986 10.0417 11.9902 9.1 11.9902 8C11.9902 6.9 11.5986 5.95833 10.8152 5.175C10.0319 4.39167 9.09023 4 7.99023 4C6.89023 4 5.94857 4.39167 5.16523 5.175C4.3819 5.95833 3.99023 6.9 3.99023 8C3.99023 9.1 4.3819 10.0417 5.16523 10.825ZM9.40273 9.4125C9.01107 9.80417 8.54023 10 7.99023 10C7.44023 10 6.9694 9.80417 6.57773 9.4125C6.18607 9.02083 5.99023 8.55 5.99023 8C5.99023 7.45 6.18607 6.97917 6.57773 6.5875C6.9694 6.19583 7.44023 6 7.99023 6C8.54023 6 9.01107 6.19583 9.40273 6.5875C9.7944 6.97917 9.99023 7.45 9.99023 8C9.99023 8.55 9.7944 9.02083 9.40273 9.4125Z" fill="#3F5F90"/>
<path fill-rule="evenodd" clip-rule="evenodd" d="M-0.00976562 17.2V18C-0.00976562 18.55 0.186068 19.0208 0.577734 19.4125C0.969401 19.8042 1.44023 20 1.99023 20H13.9902C14.5402 20 15.0111 19.8042 15.4027 19.4125C15.7944 19.0208 15.9902 18.55 15.9902 18V17.2C15.9902 16.6333 15.8444 16.1125 15.5527 15.6375C15.2611 15.1625 14.8736 14.8 14.3902 14.55C13.3569 14.0333 12.3069 13.6458 11.2402 13.3875C10.1736 13.1292 9.09023 13 7.99023 13C6.89023 13 5.8069 13.1292 4.74023 13.3875C3.67357 13.6458 2.62357 14.0333 1.59023 14.55C1.1069 14.8 0.719401 15.1625 0.427734 15.6375C0.136068 16.1125 -0.00976562 16.6333 -0.00976562 17.2ZM13.9902 17.2V18H1.99023V17.2C1.99023 17.0167 2.03607 16.85 2.12773 16.7C2.2194 16.55 2.34023 16.4333 2.49023 16.35C3.39023 15.9 4.29857 15.5625 5.21523 15.3375C6.1319 15.1125 7.0569 15 7.99023 15C8.92357 15 9.84857 15.1125 10.7652 15.3375C11.6819 15.5625 12.5902 15.9 13.4902 16.35C13.6402 16.4333 13.7611 16.55 13.8527 16.7C13.9444 16.85 13.9902 17.0167 13.9902 17.2Z" fill="#3F5F90"/>
<path d="M18.9902 11H19.9902V12C19.9902 12.2834 20.0859 12.5208 20.2773 12.7124C20.4688 12.9041 20.707 13 20.9902 13C21.2734 13 21.5117 12.9041 21.7031 12.7124C21.7949 12.6206 21.8633 12.5183 21.9102 12.4053C21.9629 12.2827 21.9902 12.1477 21.9902 12V11H22.9902C23.1562 11 23.3066 10.9668 23.4414 10.9006C23.5371 10.8542 23.625 10.7915 23.7031 10.7124C23.8945 10.5208 23.9902 10.2834 23.9902 10C23.9902 9.71655 23.8945 9.47925 23.7031 9.2876C23.5742 9.15796 23.4219 9.07202 23.25 9.03003C23.168 9.01001 23.082 9 22.9902 9H21.9902V8C21.9902 7.71655 21.8945 7.47925 21.7031 7.2876C21.5117 7.09595 21.2734 7 20.9902 7C20.707 7 20.4688 7.09595 20.2773 7.2876C20.1699 7.396 20.0918 7.51904 20.0449 7.65698C20.0078 7.7627 19.9902 7.87695 19.9902 8V9H18.9902C18.707 9 18.4688 9.09595 18.2773 9.2876C18.0859 9.47925 17.9902 9.71655 17.9902 10C17.9902 10.1665 18.0234 10.3171 18.0898 10.4517C18.1367 10.5464 18.1992 10.6333 18.2773 10.7124C18.4688 10.9041 18.707 11 18.9902 11Z" fill="#3F5F90"/>
</g>
<defs>
<clipPath id="clip0_53951_6912">
<rect width="24" height="24" fill="white"/>
</clipPath>
</defs>
</svg>
