<svg width="24" height="24" viewBox="0 0 24 24" fill="none" xmlns="http://www.w3.org/2000/svg">
<path fill-rule="evenodd" clip-rule="evenodd" d="M9.1825 21.55C9.5075 21.85 9.895 22 10.345 22H12.695C13.145 22 13.5325 21.85 13.8575 21.55C14.1825 21.25 14.3783 20.8833 14.445 20.45L14.67 18.8C14.87 18.7167 15.07 18.6167 15.27 18.5C15.47 18.3833 15.6617 18.2583 15.845 18.125L17.345 18.775C17.7617 18.9583 18.1783 18.975 18.595 18.825C19.0117 18.675 19.3367 18.4083 19.57 18.025L20.77 15.975C21.0033 15.5917 21.07 15.1833 20.97 14.75C20.87 14.3167 20.645 13.9583 20.295 13.675L18.97 12.675C19.0033 12.5583 19.02 12.4458 19.02 12.3375V11.6625C19.02 11.5542 19.0117 11.4417 18.995 11.325L20.32 10.325C20.67 10.0417 20.895 9.68333 20.995 9.25C21.095 8.81667 21.0283 8.40833 20.795 8.025L19.62 5.975C19.3867 5.59167 19.0617 5.325 18.645 5.175C18.2283 5.025 17.8117 5.04167 17.395 5.225L15.845 5.875C15.6617 5.74167 15.4742 5.61667 15.2825 5.5C15.0908 5.38333 14.8867 5.28333 14.67 5.2L14.445 3.55C14.3783 3.11667 14.1825 2.75 13.8575 2.45C13.5325 2.15 13.145 2 12.695 2H10.345C9.895 2 9.5075 2.15 9.1825 2.45C8.8575 2.75 8.66167 3.11667 8.595 3.55L8.37 5.2C8.17 5.28333 7.97 5.38333 7.77 5.5C7.57 5.61667 7.37833 5.74167 7.195 5.875L5.645 5.225C5.22833 5.04167 4.81167 5.025 4.395 5.175C3.97833 5.325 3.65333 5.59167 3.42 5.975L2.245 8.025C2.01167 8.40833 1.945 8.81667 2.045 9.25C2.145 9.68333 2.37 10.0417 2.72 10.325L4.045 11.325C4.02833 11.4417 4.02 11.5542 4.02 11.6625V12.3375C4.02 12.4458 4.02833 12.5583 4.045 12.675L2.72 13.675C2.37 13.9583 2.145 14.3167 2.045 14.75C1.945 15.1833 2.01167 15.5917 2.245 15.975L3.42 18.025C3.65333 18.4083 3.97833 18.675 4.395 18.825C4.81167 18.975 5.22833 18.9583 5.645 18.775L7.195 18.125C7.37833 18.2583 7.56583 18.3833 7.7575 18.5C7.94917 18.6167 8.15333 18.7167 8.37 18.8L8.595 20.45C8.66167 20.8833 8.8575 21.25 9.1825 21.55ZM12.495 20H10.52L10.195 17.35C9.67833 17.2167 9.19917 17.0208 8.7575 16.7625C8.31583 16.5042 7.91167 16.1833 7.545 15.8L5.07 16.85L4.095 15.15L6.245 13.525C6.16167 13.275 6.10333 13.025 6.07 12.775C6.03667 12.525 6.02 12.2667 6.02 12C6.02 11.7167 6.03667 11.45 6.07 11.2C6.10333 10.95 6.16167 10.7 6.245 10.45L4.095 8.85L5.07 7.15L7.545 8.175C7.91167 7.80833 8.31583 7.49583 8.7575 7.2375C9.19917 6.97917 9.67833 6.78333 10.195 6.65L10.545 4H12.52L12.845 6.65C13.3617 6.78333 13.8408 6.97917 14.2825 7.2375C14.645 7.44955 14.9823 7.70372 15.2943 8H15.9664L17.97 7.15L18.945 8.85L16.795 10.475C16.8783 10.7083 16.9367 10.9542 16.97 11.2125C17.0033 11.4708 17.02 11.7333 17.02 12C17.02 12.2667 17.0033 12.5292 16.97 12.7875C16.9367 13.0458 16.8783 13.2917 16.795 13.525L18.945 15.15L17.97 16.85L15.495 15.825C15.1283 16.1917 14.7242 16.5042 14.2825 16.7625C13.8408 17.0208 13.3617 17.2167 12.845 17.35L12.495 20Z" fill="#3F5F90"/>
<path d="M14.0746 14.475C13.3913 15.1583 12.5663 15.5 11.5996 15.5C10.6163 15.5 9.78711 15.1583 9.11211 14.475C8.43711 13.7917 8.09961 12.9667 8.09961 12C8.09961 11.0333 8.43711 10.2083 9.11211 9.525C9.78711 8.84167 10.6163 8.5 11.5996 8.5C12.5663 8.5 13.3913 8.84167 14.0746 9.525C14.7579 10.2083 15.0996 11.0333 15.0996 12C15.0996 12.9667 14.7579 13.7917 14.0746 14.475Z" fill="#3F5F90"/>
</svg>
