<svg width="24" height="24" viewBox="0 0 24 24" fill="none" xmlns="http://www.w3.org/2000/svg">
<path d="M16 9C16.1333 9 16.25 8.95 16.35 8.85C16.45 8.75 16.5 8.63333 16.5 8.5V5.5C16.5 5.36667 16.45 5.25 16.35 5.15C16.25 5.05 16.1333 5 16 5C15.8667 5 15.75 5.05 15.65 5.15C15.55 5.25 15.5 5.36667 15.5 5.5V8.5C15.5 8.63333 15.55 8.75 15.65 8.85C15.75 8.95 15.8667 9 16 9ZM16 11C16.1333 11 16.25 10.95 16.35 10.85C16.45 10.75 16.5 10.6333 16.5 10.5C16.5 10.3667 16.45 10.25 16.35 10.15C16.25 10.05 16.1333 10 16 10C15.8667 10 15.75 10.05 15.65 10.15C15.55 10.25 15.5 10.3667 15.5 10.5C15.5 10.6333 15.55 10.75 15.65 10.85C15.75 10.95 15.8667 11 16 11ZM4 20C3.71667 20 3.47917 19.9042 3.2875 19.7125C3.09583 19.5208 3 19.2833 3 19C3 18.7167 3.09583 18.4792 3.2875 18.2875C3.47917 18.0958 3.71667 18 4 18H14C14.2833 18 14.5208 18.0958 14.7125 18.2875C14.9042 18.4792 15 18.7167 15 19C15 19.2833 14.9042 19.5208 14.7125 19.7125C14.5208 19.9042 14.2833 20 14 20H4ZM16 13C14.6167 13 13.4375 12.5125 12.4625 11.5375C11.4875 10.5625 11 9.38333 11 8C11 6.61667 11.4875 5.4375 12.4625 4.4625C13.4375 3.4875 14.6167 3 16 3C17.3833 3 18.5625 3.4875 19.5375 4.4625C20.5125 5.4375 21 6.61667 21 8C21 9.38333 20.5125 10.5625 19.5375 11.5375C18.5625 12.5125 17.3833 13 16 13ZM4 12C3.71667 12 3.47917 11.9042 3.2875 11.7125C3.09583 11.5208 3 11.2833 3 11C3 10.7167 3.09583 10.4792 3.2875 10.2875C3.47917 10.0958 3.71667 10 4 10H8.675C8.95833 10 9.19583 10.0958 9.3875 10.2875C9.57917 10.4792 9.675 10.7167 9.675 11C9.675 11.2667 9.57917 11.5 9.3875 11.7C9.19583 11.9 8.95833 12 8.675 12H4ZM4 16C3.71667 16 3.47917 15.9042 3.2875 15.7125C3.09583 15.5208 3 15.2833 3 15C3 14.7167 3.09583 14.4792 3.2875 14.2875C3.47917 14.0958 3.71667 14 4 14H11.925C12.2083 14 12.4458 14.0958 12.6375 14.2875C12.8292 14.4792 12.925 14.7167 12.925 15C12.925 15.2667 12.8333 15.5 12.65 15.7C12.4667 15.9 12.225 16 11.925 16H4Z" fill="#3F5F90"/>
</svg>
