<svg width="24" height="24" viewBox="0 0 24 24" fill="none" xmlns="http://www.w3.org/2000/svg">
<path fill-rule="evenodd" clip-rule="evenodd" d="M6.375 19.5355L7.825 21.9855C7.95833 22.2021 8.14167 22.348 8.375 22.423C8.60833 22.498 8.84167 22.4855 9.075 22.3855L11.675 21.2855L14.275 22.3855C14.5083 22.4855 14.7417 22.498 14.975 22.423C15.2083 22.348 15.3917 22.2021 15.525 21.9855L16.975 19.5355L19.725 18.9355C19.975 18.8855 20.175 18.7563 20.325 18.548C20.475 18.3396 20.5333 18.1105 20.5 17.8605L20.225 15.0355L22.1 12.8855C22.2667 12.7021 22.35 12.4855 22.35 12.2355C22.35 11.9855 22.2667 11.7688 22.1 11.5855L20.225 9.43547L20.5 6.61047C20.5333 6.36047 20.475 6.1313 20.325 5.92297C20.175 5.71464 19.975 5.58547 19.725 5.53547L16.975 4.93547L15.525 2.48547C15.3917 2.2688 15.2083 2.12297 14.975 2.04797C14.7417 1.97297 14.5083 1.98547 14.275 2.08547L11.675 3.18547L9.075 2.08547C8.84167 1.98547 8.60833 1.97297 8.375 2.04797C8.14167 2.12297 7.95833 2.2688 7.825 2.48547L6.375 4.93547L3.625 5.53547C3.375 5.58547 3.175 5.71464 3.025 5.92297C2.875 6.1313 2.81667 6.36047 2.85 6.61047L3.125 9.43547L1.25 11.5855C1.08333 11.7688 1 11.9855 1 12.2355C1 12.4855 1.08333 12.7021 1.25 12.8855L3.125 15.0355L2.85 17.8605C2.81667 18.1105 2.875 18.3396 3.025 18.548C3.175 18.7563 3.375 18.8855 3.625 18.9355L6.375 19.5355ZM11.675 19.0855L9.125 20.1855L7.675 17.7855L4.925 17.1855L5.175 14.3355L3.325 12.2355L5.175 10.0855L4.925 7.28547L7.675 6.68547L9.075 4.28547L11.675 5.38547L14.225 4.28547L15.675 6.68547L18.425 7.28547L18.175 10.0855L20.025 12.2355L18.175 14.3355L18.425 17.1355L15.675 17.7855L14.275 20.1855L11.675 19.0855Z" fill="#3F5F90"/>
<path d="M8.67578 11.3879L10.125 12.813L13.6504 9.28785C13.8496 9.0879 14.0879 8.9922 14.3633 9.0005C14.6367 9.0088 14.875 9.1128 15.0742 9.313C15.2578 9.51295 15.3535 9.74635 15.3633 10.0129C15.3711 10.2795 15.2754 10.5129 15.0742 10.7129L10.8242 14.9629C10.625 15.1629 10.3926 15.2629 10.125 15.2629C10.0039 15.2629 9.88867 15.2422 9.78125 15.2007C9.65234 15.1511 9.53516 15.0718 9.42578 14.9629L7.27539 12.813C7.0918 12.6296 7 12.3962 7 12.1128C7 11.8296 7.0918 11.5962 7.27539 11.4129C7.41602 11.2725 7.57422 11.1812 7.75195 11.1394C7.82812 11.1216 7.90625 11.1128 7.98828 11.1128C8.26172 11.1128 8.49219 11.2046 8.67578 11.3879Z" fill="#3F5F90"/>
</svg>
