<svg width="24" height="24" viewBox="0 0 24 24" fill="none" xmlns="http://www.w3.org/2000/svg">
<path d="M16.7752 19.575C16.5919 19.6916 16.4085 19.8 16.2252 19.9C16.0419 20 15.8502 20.0916 15.6502 20.175C15.4002 20.2916 15.146 20.2916 14.8877 20.175C14.6294 20.0583 14.4502 19.8666 14.3502 19.6C14.2502 19.35 14.2627 19.1041 14.3877 18.8625C14.5127 18.6208 14.7002 18.4416 14.9502 18.325C15.0169 18.2916 15.0794 18.2583 15.1377 18.225C15.196 18.1916 15.2585 18.1583 15.3252 18.125L12.0002 14.8V17.575C12.0002 18.025 11.796 18.3375 11.3877 18.5125C10.9794 18.6875 10.6169 18.6166 10.3002 18.3L7.0002 15H4.0002C3.71686 15 3.47936 14.9041 3.2877 14.7125C3.09603 14.5208 3.0002 14.2833 3.0002 14V9.99998C3.0002 9.71664 3.09603 9.47914 3.2877 9.28748C3.47936 9.09581 3.71686 8.99998 4.0002 8.99998H6.2002L2.1002 4.89998C1.91686 4.71664 1.8252 4.48331 1.8252 4.19998C1.8252 3.91664 1.91686 3.68331 2.1002 3.49998C2.28353 3.31664 2.51686 3.22498 2.8002 3.22498C3.08353 3.22498 3.31686 3.31664 3.5002 3.49998L20.5002 20.5C20.6835 20.6833 20.7752 20.9166 20.7752 21.2C20.7752 21.4833 20.6835 21.7166 20.5002 21.9C20.3169 22.0833 20.0835 22.175 19.8002 22.175C19.5169 22.175 19.2835 22.0833 19.1002 21.9L16.7752 19.575ZM19.0002 11.975C19.0002 10.5916 18.6335 9.32914 17.9002 8.18748C17.1669 7.04581 16.1835 6.19164 14.9502 5.62498C14.7002 5.50831 14.5169 5.32914 14.4002 5.08748C14.2835 4.84581 14.2669 4.59998 14.3502 4.34998C14.4502 4.08331 14.6294 3.89164 14.8877 3.77498C15.146 3.65831 15.4085 3.65831 15.6752 3.77498C17.2919 4.49164 18.5835 5.58331 19.5502 7.04998C20.5169 8.51664 21.0002 10.1583 21.0002 11.975C21.0002 12.525 20.9502 13.0708 20.8502 13.6125C20.7502 14.1541 20.6085 14.675 20.4252 15.175C20.2919 15.5416 20.0877 15.7708 19.8127 15.8625C19.5377 15.9541 19.2835 15.9583 19.0502 15.875C18.8169 15.7916 18.6294 15.6416 18.4877 15.425C18.346 15.2083 18.3419 14.9583 18.4752 14.675C18.6585 14.2416 18.7919 13.8041 18.8752 13.3625C18.9585 12.9208 19.0002 12.4583 19.0002 11.975ZM14.7752 8.42498C15.3252 8.77498 15.7502 9.29998 16.0502 9.99998C16.3502 10.7 16.5002 11.3666 16.5002 12V12.25C16.5002 12.3333 16.4919 12.4166 16.4752 12.5C16.4419 12.7166 16.3252 12.8583 16.1252 12.925C15.9252 12.9916 15.7419 12.9416 15.5752 12.775L14.3002 11.5C14.2002 11.4 14.1252 11.2875 14.0752 11.1625C14.0252 11.0375 14.0002 10.9083 14.0002 10.775V8.84998C14.0002 8.64998 14.0877 8.50414 14.2627 8.41248C14.4377 8.32081 14.6085 8.32498 14.7752 8.42498ZM9.7502 6.94998C9.6502 6.84998 9.6002 6.73331 9.6002 6.59998C9.6002 6.46664 9.6502 6.34998 9.7502 6.24998L10.3002 5.69998C10.6169 5.38331 10.9794 5.31248 11.3877 5.48748C11.796 5.66248 12.0002 5.97498 12.0002 6.42498V7.99998C12.0002 8.23331 11.9002 8.39164 11.7002 8.47498C11.5002 8.55831 11.3169 8.51664 11.1502 8.34998L9.7502 6.94998ZM10.0002 15.15V12.8L8.2002 11H5.0002V13H7.8502L10.0002 15.15Z" fill="#3F5F90"/>
</svg>
